<?xml version="1.0" encoding="utf-8"?>
<!-- Generator: Adobe Illustrator 26.0.3, SVG Export Plug-In . SVG Version: 6.00 Build 0)  -->
<svg version="1.1" id="Layer_1" xmlns="http://www.w3.org/2000/svg" xmlns:xlink="http://www.w3.org/1999/xlink" x="0px" y="0px"
	 viewBox="0 0 400 150" style="enable-background:new 0 0 400 150;" xml:space="preserve">
<style type="text/css">
	.st0{clip-path:url(#SVGID_00000152969262669291147780000009824851277198050950_);}
	.st1{fill:#00ADEF;}
	.st2{clip-path:url(#SVGID_00000051358267275820152920000007238685704615686835_);}
	.st3{fill:#FFCC33;}
	.st4{clip-path:url(#SVGID_00000139996214137570928440000001219455418168101044_);}
	.st5{fill:#FF4B23;}
	.st6{fill:#FFFFFF;}
</style>
<g>
	<defs>
		<rect id="SVGID_1_" x="29.4" y="58.7" width="52.3" height="43.6"/>
	</defs>
	<clipPath id="SVGID_00000164500441508088330590000005940226047815928499_">
		<use xlink:href="#SVGID_1_"  style="overflow:visible;"/>
	</clipPath>
	<g style="clip-path:url(#SVGID_00000164500441508088330590000005940226047815928499_);">
		<path class="st1" d="M29.4,73.6v28.7h9.2c7,0,12.7-5.7,12.7-12.8v-9.1h14.8c5.5,0,10.6-1.8,14.9-5.2l0.2-0.2L54.2,59L29.4,73.6z"
			/>
	</g>
</g>
<g>
	<defs>
		<rect id="SVGID_00000132058419217410660910000008720485749701870000_" x="27.4" y="31.6" width="48.3" height="25.7"/>
	</defs>
	<clipPath id="SVGID_00000058553088174486139680000013983492515357994929_">
		<use xlink:href="#SVGID_00000132058419217410660910000008720485749701870000_"  style="overflow:visible;"/>
	</clipPath>
	<g style="clip-path:url(#SVGID_00000058553088174486139680000013983492515357994929_);">
		<path class="st3" d="M74.4,33.9c-3.2-1.5-6.7-2.3-10.3-2.3H27.4v13.8c0,6.3,5,11.3,11.2,11.3h13.7L74.4,33.9z"/>
	</g>
</g>
<g>
	<defs>
		<rect id="SVGID_00000043453673289730259240000009983253828863158657_" x="54.7" y="33.3" width="36.4" height="41.3"/>
	</defs>
	<clipPath id="SVGID_00000126288445876405754980000016446300378988458898_">
		<use xlink:href="#SVGID_00000043453673289730259240000009983253828863158657_"  style="overflow:visible;"/>
	</clipPath>
	<g style="clip-path:url(#SVGID_00000126288445876405754980000016446300378988458898_);">
		<path class="st5" d="M85.9,40.9c-2.4-3-5.3-5.4-8.6-7l-22,22.8l28.3,16.7l0.1,0.1l0.1-0.1c0.1-0.1,0.2-0.2,0.3-0.2
			c4.4-4.5,6.9-10.3,7.1-16.6c0-0.2,0-0.4,0-0.6C91.1,50.5,89.3,45.3,85.9,40.9z"/>
	</g>
</g>
<g>
	<g transform="translate(79.601549, 68.598962)">
		<g>
			<path class="st6" d="M29.3,31.4V-1.4h4.8l1,2.4h0.2c0.5-0.7,1.4-1.3,2.6-2c1.2-0.7,2.6-1,4.3-1c2,0,3.8,0.6,5.5,1.7
				C49.6,0.8,51,2.3,52,4.3c1,1.9,1.5,4.1,1.5,6.5S53,15.3,52,17.2c-1,1.9-2.4,3.5-4.1,4.6c-1.7,1.1-3.6,1.7-5.5,1.7
				c-1,0-2-0.2-2.9-0.5c-0.9-0.3-1.6-0.7-2.2-1.1c-0.6-0.4-1-0.8-1.2-1.1h-0.2v10.6H29.3z M41.5,17.5c1,0,1.9-0.3,2.8-0.9
				c0.9-0.6,1.5-1.4,2.1-2.4c0.5-1,0.8-2.2,0.8-3.5c0-1.3-0.3-2.5-0.8-3.5c-0.5-1-1.2-1.8-2.1-2.4C43.4,4.3,42.5,4,41.5,4
				c-1,0-2,0.3-2.8,0.9c-0.8,0.6-1.5,1.4-2.1,2.4c-0.5,1-0.8,2.2-0.8,3.5c0,1.3,0.3,2.5,0.8,3.5c0.5,1,1.2,1.8,2.1,2.4
				C39.5,17.2,40.4,17.5,41.5,17.5z"/>
		</g>
	</g>
</g>
<g>
	<g transform="translate(101.009485, 68.598962)">
		<g>
			<path class="st6" d="M36.5,22.9V-1.4h4.8l1,2.4h0.2c0.5-0.6,1.2-1.3,2.1-2c1-0.7,2.1-1,3.5-1c0.9,0,1.6,0.1,2.2,0.2v6.5
				C49.8,4.6,49,4.5,48,4.5c-1.6,0-2.8,0.5-3.7,1.4c-0.9,0.9-1.4,2.2-1.4,3.9v13.1H36.5z"/>
		</g>
	</g>
</g>
<g>
	<g transform="translate(114.010983, 68.598962)">
		<g>
			<path class="st6" d="M51.9,23.5c-2.2,0-4.2-0.6-6.1-1.7c-1.9-1.2-3.4-2.7-4.6-4.7c-1.1-2-1.7-4.1-1.7-6.3c0-2.2,0.6-4.4,1.7-6.3
				c1.1-2,2.7-3.5,4.6-4.7C47.7-1.4,49.7-2,51.9-2c2.2,0,4.2,0.6,6.1,1.7c1.9,1.2,3.4,2.7,4.6,4.7c1.1,2,1.7,4.1,1.7,6.3
				c0,2.2-0.6,4.3-1.7,6.3c-1.1,2-2.7,3.5-4.6,4.7C56.1,22.9,54.1,23.5,51.9,23.5z M51.9,17.5c1.7,0,3.1-0.6,4.2-1.9
				c1.1-1.3,1.7-2.9,1.7-4.8c0-2-0.6-3.6-1.7-4.9C55,4.6,53.6,4,51.9,4s-3.1,0.6-4.2,1.9C46.5,7.2,46,8.8,46,10.8
				c0,2,0.6,3.6,1.7,4.8C48.8,16.9,50.2,17.5,51.9,17.5z"/>
		</g>
	</g>
</g>
<g>
	<g transform="translate(134.884613, 68.598962)">
		<g>
			<path class="st6" d="M73.5-2c2.7,0,4.8,0.9,6.4,2.7c1.6,1.8,2.3,4.3,2.3,7.6v14.5h-6.5V8.6c0-1.4-0.4-2.5-1.1-3.3
				C73.9,4.4,73,4,71.9,4c-1.1,0-2,0.4-2.7,1.2c-0.7,0.8-1.1,1.9-1.1,3.3v14.3h-6.5V8.6c0-1.4-0.4-2.5-1.1-3.3C59.9,4.4,59.1,4,58,4
				c-1.1,0-2,0.4-2.7,1.2c-0.7,0.8-1.1,1.9-1.1,3.3v14.3h-6.5V-1.4h4.8l1,2.4h0.2c0.4-0.6,1.2-1.3,2.2-2c1-0.7,2.2-1,3.6-1
				c1.7,0,3,0.3,4.1,1c1.1,0.7,2,1.5,2.6,2.4c0.7-0.9,1.6-1.7,2.9-2.4C70.6-1.6,72-2,73.5-2z"/>
		</g>
	</g>
</g>
<g>
	<g transform="translate(164.698998, 68.598962)">
		<g>
			<path class="st6" d="M68.8,23.5c-2.2,0-4.2-0.6-6.1-1.7c-1.9-1.2-3.4-2.7-4.6-4.7c-1.1-2-1.7-4.1-1.7-6.3c0-2.2,0.6-4.4,1.7-6.3
				c1.1-2,2.7-3.5,4.6-4.7C64.6-1.4,66.6-2,68.8-2C71-2,73-1.4,74.9-0.2c1.9,1.2,3.4,2.7,4.6,4.7c1.1,2,1.7,4.1,1.7,6.3
				c0,2.2-0.6,4.3-1.7,6.3c-1.1,2-2.7,3.5-4.6,4.7C73,22.9,71,23.5,68.8,23.5z M68.8,17.5c1.7,0,3.1-0.6,4.2-1.9
				c1.1-1.3,1.7-2.9,1.7-4.8c0-2-0.6-3.6-1.7-4.9C71.9,4.6,70.5,4,68.8,4c-1.7,0-3.1,0.6-4.2,1.9c-1.1,1.3-1.7,2.9-1.7,4.9
				c0,2,0.6,3.6,1.7,4.8C65.7,16.9,67.1,17.5,68.8,17.5z"/>
		</g>
	</g>
</g>
<g>
	<g transform="translate(185.572629, 68.598962)">
		<g>
			<path class="st6" d="M75.8-4.9c-2.3,0-3.4,1.1-3.4,3.4v0.1h5.2v5.8h-5v18.5h-6.5V4.4H63v-5.8h3.1v-0.9c0-2.7,0.8-4.8,2.2-6.4
				c1.5-1.6,3.5-2.4,5.9-2.4c1.2,0,2.3,0.2,3.3,0.5v5.9C77.1-4.8,76.5-4.9,75.8-4.9z"/>
		</g>
	</g>
</g>
<g>
	<g transform="translate(197.861709, 68.598962)">
		<g>
			<path class="st6" d="M79.9,23.5c-2.2,0-4.2-0.6-6.1-1.7c-1.9-1.2-3.4-2.7-4.6-4.7c-1.1-2-1.7-4.1-1.7-6.3c0-2.2,0.6-4.4,1.7-6.3
				c1.1-2,2.7-3.5,4.6-4.7C75.6-1.4,77.7-2,79.9-2C82-2,84.1-1.4,86-0.2c1.9,1.2,3.4,2.7,4.6,4.7c1.1,2,1.7,4.1,1.7,6.3
				c0,2.2-0.6,4.3-1.7,6.3c-1.1,2-2.7,3.5-4.6,4.7C84.1,22.9,82,23.5,79.9,23.5z M79.9,17.5c1.7,0,3.1-0.6,4.2-1.9
				c1.1-1.3,1.7-2.9,1.7-4.8c0-2-0.6-3.6-1.7-4.9C83,4.6,81.6,4,79.9,4c-1.7,0-3.1,0.6-4.2,1.9c-1.1,1.3-1.7,2.9-1.7,4.9
				c0,2,0.6,3.6,1.7,4.8C76.7,16.9,78.2,17.5,79.9,17.5z"/>
		</g>
	</g>
</g>
<g>
	<g transform="translate(218.735339, 68.598962)">
		<g>
			<path class="st6" d="M85.3,23.5c-1.9,0-3.6-0.4-5.1-1.3c-1.5-0.9-2.6-2.1-3.5-3.7c-0.8-1.6-1.2-3.4-1.2-5.5V-1.4h6.5v13.7
				c0,1.4,0.5,2.6,1.4,3.6c0.9,1,2.1,1.5,3.4,1.5c1.4,0,2.6-0.5,3.5-1.5c0.9-1,1.4-2.2,1.4-3.7V-1.4H98v24.2h-4.9l-1-2.4h-0.2
				c-0.5,0.6-1.4,1.3-2.5,2S86.8,23.5,85.3,23.5z"/>
		</g>
	</g>
</g>
<g>
	<g transform="translate(239.64459, 68.598962)">
		<g>
			<path class="st6" d="M82.7,22.9V-1.4h4.8l1,2.4h0.2c0.5-0.6,1.3-1.3,2.5-2c1.2-0.7,2.5-1,4.1-1c1.9,0,3.6,0.4,5.1,1.3
				c1.5,0.9,2.6,2.1,3.4,3.7c0.8,1.6,1.2,3.4,1.2,5.5v14.3h-6.5V9.1c0-1.4-0.5-2.6-1.4-3.6c-0.9-1-2.1-1.5-3.4-1.5
				c-1.4,0-2.5,0.5-3.4,1.5c-0.9,1-1.4,2.2-1.4,3.6v13.7H82.7z"/>
		</g>
	</g>
</g>
<g>
	<g transform="translate(260.553841, 68.598962)">
		<g>
			<path class="st6" d="M99.6,23.5c-2,0-3.8-0.6-5.5-1.7c-1.7-1.1-3.1-2.6-4.1-4.6c-1-1.9-1.5-4.1-1.5-6.5s0.5-4.5,1.5-6.5
				c1-2,2.4-3.5,4.1-4.6C95.8-1.4,97.6-2,99.6-2c1,0,2,0.2,2.9,0.5c0.9,0.3,1.6,0.7,2.2,1.1c0.6,0.4,1,0.8,1.2,1.1h0.2v-11.1h6.5
				v33.2h-4.9l-1-2.4h-0.2c-0.5,0.7-1.4,1.3-2.6,2C102.7,23.2,101.2,23.5,99.6,23.5z M100.5,17.5c1,0,1.9-0.3,2.8-0.9
				c0.9-0.6,1.6-1.4,2.1-2.4c0.5-1,0.8-2.2,0.8-3.5c0-1.3-0.3-2.5-0.8-3.5c-0.5-1-1.2-1.8-2.1-2.4c-0.8-0.6-1.8-0.9-2.8-0.9
				c-1,0-2,0.3-2.8,0.9c-0.8,0.6-1.5,1.4-2.1,2.4c-0.5,1-0.8,2.2-0.8,3.5c0,1.3,0.3,2.5,0.8,3.5c0.5,1,1.2,1.8,2.1,2.4
				C98.5,17.2,99.5,17.5,100.5,17.5z"/>
		</g>
	</g>
</g>
<g>
	<g transform="translate(124.302327, 86.649165)">
		<g>
			<path class="st6" d="M42.5,31.4v-9.6h0.7l0.2,1h0.1c0.1-0.1,0.2-0.3,0.5-0.4c0.2-0.2,0.5-0.3,0.8-0.5c0.3-0.1,0.7-0.2,1-0.2
				c0.6,0,1.1,0.2,1.6,0.5c0.5,0.3,0.9,0.7,1.2,1.3c0.3,0.6,0.4,1.2,0.4,1.9s-0.1,1.3-0.4,1.9c-0.3,0.6-0.7,1-1.2,1.3
				c-0.5,0.3-1,0.5-1.6,0.5c-0.4,0-0.7-0.1-1-0.2c-0.3-0.1-0.6-0.3-0.8-0.5c-0.2-0.2-0.4-0.3-0.4-0.5h-0.1v3.5H42.5z M45.7,28.2
				c0.4,0,0.8-0.1,1.2-0.4c0.4-0.2,0.6-0.6,0.9-1c0.2-0.4,0.3-0.9,0.3-1.5s-0.1-1-0.3-1.5c-0.2-0.4-0.5-0.8-0.9-1
				c-0.3-0.2-0.7-0.4-1.2-0.4c-0.4,0-0.8,0.1-1.2,0.4c-0.4,0.2-0.6,0.6-0.9,1c-0.2,0.4-0.3,0.9-0.3,1.5s0.1,1,0.3,1.5
				c0.2,0.4,0.5,0.8,0.9,1C44.9,28.1,45.3,28.2,45.7,28.2z"/>
		</g>
	</g>
</g>
<g>
	<g transform="translate(130.331388, 86.649165)">
		<g>
			<path class="st6" d="M44.5,28.9v-7h0.7l0.2,1h0.1c0.2-0.3,0.4-0.5,0.8-0.8c0.3-0.2,0.7-0.4,1.1-0.4c0.2,0,0.4,0,0.5,0.1v0.9
				c-0.2,0-0.3-0.1-0.5-0.1c-0.6,0-1.1,0.2-1.5,0.6c-0.4,0.4-0.5,1-0.5,1.6v4H44.5z"/>
		</g>
	</g>
</g>
<g>
	<g transform="translate(133.720759, 86.649165)">
		<g>
			<path class="st6" d="M48.4,29c-0.6,0-1.2-0.2-1.7-0.5c-0.5-0.3-0.9-0.8-1.2-1.3c-0.3-0.6-0.4-1.2-0.4-1.9c0-0.7,0.1-1.3,0.4-1.9
				c0.3-0.6,0.7-1,1.2-1.3c0.5-0.3,1.1-0.5,1.7-0.5c0.6,0,1.1,0.2,1.6,0.5c0.5,0.3,0.9,0.8,1.2,1.3c0.3,0.6,0.5,1.2,0.5,1.9
				c0,0.7-0.2,1.3-0.5,1.9c-0.3,0.6-0.7,1-1.2,1.3C49.6,28.9,49,29,48.4,29z M48.4,28.2c0.4,0,0.8-0.1,1.2-0.4
				c0.4-0.2,0.7-0.6,0.9-1c0.2-0.4,0.3-0.9,0.3-1.5s-0.1-1-0.3-1.5c-0.2-0.4-0.5-0.8-0.9-1c-0.4-0.2-0.8-0.4-1.2-0.4
				c-0.4,0-0.8,0.1-1.2,0.4c-0.4,0.2-0.7,0.6-0.9,1c-0.2,0.4-0.3,0.9-0.3,1.5s0.1,1,0.3,1.5c0.2,0.4,0.5,0.8,0.9,1
				C47.6,28.1,48,28.2,48.4,28.2z"/>
		</g>
	</g>
</g>
<g>
	<g transform="translate(139.506971, 86.649165)">
		<g>
			<path class="st6" d="M54.4,21.7c0.4,0,0.8,0.1,1.1,0.4c0.4,0.2,0.6,0.6,0.9,1c0.2,0.4,0.3,0.9,0.3,1.5v4.3h-0.9v-4.3
				c0-0.6-0.1-1.1-0.4-1.5c-0.3-0.4-0.7-0.5-1.1-0.5c-0.5,0-0.8,0.2-1.2,0.6c-0.3,0.4-0.5,0.9-0.5,1.5v4.3h-0.9v-4.3
				c0-0.6-0.1-1.1-0.4-1.5c-0.3-0.4-0.7-0.5-1.1-0.5c-0.5,0-0.9,0.2-1.2,0.6c-0.3,0.4-0.5,0.9-0.5,1.5v4.3h-0.9v-7h0.7l0.2,1h0.1
				c0.2-0.3,0.4-0.5,0.7-0.8c0.3-0.2,0.6-0.4,1.1-0.4c0.5,0,1,0.2,1.3,0.5c0.3,0.3,0.6,0.6,0.8,0.9c0.2-0.3,0.4-0.7,0.8-1
				C53.4,21.8,53.8,21.7,54.4,21.7z"/>
		</g>
	</g>
</g>
<g>
	<g transform="translate(147.869523, 86.649165)">
		<g>
			<path class="st6" d="M53.1,29c-0.6,0-1.2-0.2-1.7-0.5c-0.5-0.3-0.9-0.8-1.2-1.3c-0.3-0.6-0.4-1.2-0.4-1.9c0-0.7,0.1-1.3,0.4-1.9
				c0.3-0.6,0.7-1,1.2-1.3c0.5-0.3,1.1-0.5,1.7-0.5c0.6,0,1.1,0.2,1.6,0.5c0.5,0.3,0.9,0.8,1.2,1.3c0.3,0.6,0.5,1.2,0.5,1.9
				c0,0.7-0.2,1.3-0.5,1.9c-0.3,0.6-0.7,1-1.2,1.3C54.3,28.9,53.7,29,53.1,29z M53.1,28.2c0.4,0,0.8-0.1,1.2-0.4
				c0.4-0.2,0.7-0.6,0.9-1c0.2-0.4,0.3-0.9,0.3-1.5s-0.1-1-0.3-1.5c-0.2-0.4-0.5-0.8-0.9-1c-0.4-0.2-0.8-0.4-1.2-0.4
				c-0.4,0-0.8,0.1-1.2,0.4c-0.4,0.2-0.7,0.6-0.9,1c-0.2,0.4-0.3,0.9-0.3,1.5s0.1,1,0.3,1.5c0.2,0.4,0.5,0.8,0.9,1
				C52.3,28.1,52.7,28.2,53.1,28.2z"/>
		</g>
	</g>
</g>
<g>
	<g transform="translate(153.655734, 86.649165)">
	</g>
</g>
<g>
	<g transform="translate(156.168727, 86.649165)">
		<g>
			<path class="st6" d="M55.2,29c-0.5,0-0.9-0.1-1.3-0.3c-0.4-0.2-0.7-0.5-0.9-0.8c-0.2-0.3-0.3-0.7-0.4-1.1h0.9
				c0.1,0.4,0.2,0.7,0.5,1c0.3,0.2,0.7,0.4,1.2,0.4c0.5,0,0.8-0.1,1.1-0.3c0.3-0.2,0.4-0.5,0.4-0.8c0-0.2-0.1-0.4-0.2-0.6
				c-0.1-0.2-0.3-0.3-0.5-0.4c-0.2-0.1-0.5-0.2-0.9-0.3c-0.5-0.2-0.9-0.3-1.1-0.4c-0.3-0.1-0.5-0.3-0.8-0.6c-0.2-0.3-0.3-0.6-0.3-1
				c0-0.4,0.1-0.7,0.3-1c0.2-0.3,0.5-0.5,0.8-0.7c0.3-0.2,0.8-0.3,1.2-0.3c0.4,0,0.8,0.1,1.2,0.3c0.4,0.2,0.6,0.4,0.9,0.8
				c0.2,0.3,0.3,0.7,0.4,1.1h-0.9c-0.1-0.4-0.2-0.7-0.5-0.9c-0.2-0.2-0.6-0.3-1-0.3c-0.4,0-0.8,0.1-1,0.3c-0.2,0.2-0.4,0.5-0.4,0.8
				c0,0.3,0.1,0.6,0.4,0.8c0.3,0.2,0.7,0.3,1.3,0.5c0.5,0.2,0.9,0.3,1.1,0.5c0.3,0.1,0.6,0.3,0.8,0.6c0.2,0.3,0.3,0.6,0.3,1
				c0,0.6-0.2,1.1-0.6,1.4C56.5,28.8,55.9,29,55.2,29z"/>
		</g>
	</g>
</g>
<g>
	<g transform="translate(160.76179, 86.649165)">
		<g>
			<path class="st6" d="M60.6,25.2c0,0.3,0,0.5-0.1,0.7h-5.5c0.1,0.7,0.3,1.3,0.8,1.7c0.4,0.4,1,0.6,1.6,0.6c0.9,0,1.5-0.4,2-1.1
				h0.9c-0.2,0.6-0.6,1-1.1,1.4c-0.5,0.4-1.1,0.6-1.8,0.6c-0.6,0-1.2-0.2-1.7-0.5c-0.5-0.3-0.9-0.8-1.2-1.3
				c-0.3-0.6-0.4-1.2-0.4-1.9c0-0.7,0.1-1.3,0.4-1.9c0.3-0.6,0.7-1,1.2-1.3c0.5-0.3,1.1-0.5,1.7-0.5c0.6,0,1.1,0.2,1.6,0.5
				c0.5,0.3,0.9,0.7,1.1,1.2C60.5,23.9,60.6,24.5,60.6,25.2z M57.4,22.5c-0.4,0-0.8,0.1-1.1,0.3c-0.3,0.2-0.6,0.5-0.9,0.9
				c-0.2,0.4-0.4,0.8-0.4,1.2h4.6c0-0.7-0.3-1.3-0.7-1.8S58.1,22.5,57.4,22.5z"/>
		</g>
	</g>
</g>
<g>
	<g transform="translate(166.431849, 86.649165)">
		<g>
			<path class="st6" d="M58.9,21.7c0.5,0,0.9,0.1,1.3,0.3c0.4,0.2,0.7,0.5,0.9,0.9c0.2,0.4,0.4,0.8,0.4,1.3v4.6h-0.7l-0.2-1h-0.1
				c-0.2,0.3-0.4,0.5-0.8,0.8c-0.4,0.2-0.8,0.3-1.4,0.3c-0.5,0-0.9-0.1-1.2-0.3c-0.3-0.2-0.6-0.4-0.8-0.8c-0.2-0.3-0.3-0.7-0.3-1.1
				c0-0.4,0.1-0.8,0.4-1.1c0.3-0.3,0.6-0.6,1.1-0.8c0.5-0.2,1-0.3,1.6-0.3h1.5v-0.4c0-0.5-0.2-0.9-0.5-1.3c-0.3-0.3-0.7-0.5-1.2-0.5
				c-0.5,0-0.9,0.1-1.1,0.4c-0.3,0.2-0.5,0.6-0.5,1h-0.9c0-0.4,0.2-0.8,0.4-1.1c0.2-0.3,0.5-0.6,0.9-0.8
				C58,21.8,58.5,21.7,58.9,21.7z M58.5,28.2c0.7,0,1.2-0.2,1.6-0.6c0.4-0.4,0.6-0.9,0.6-1.5v-0.6h-1.4c-0.7,0-1.3,0.1-1.7,0.4
				c-0.4,0.2-0.6,0.6-0.6,1c0,0.4,0.1,0.7,0.4,0.9C57.6,28.1,58,28.2,58.5,28.2z"/>
		</g>
	</g>
</g>
<g>
	<g transform="translate(171.679557, 86.649165)">
		<g>
			<path class="st6" d="M58.2,28.9v-7h0.7l0.2,1h0.1c0.2-0.3,0.4-0.5,0.8-0.8c0.3-0.2,0.7-0.4,1.1-0.4c0.2,0,0.4,0,0.5,0.1v0.9
				c-0.2,0-0.3-0.1-0.5-0.1c-0.6,0-1.1,0.2-1.5,0.6c-0.4,0.4-0.5,1-0.5,1.6v4H58.2z"/>
		</g>
	</g>
</g>
<g>
	<g transform="translate(175.068929, 86.649165)">
		<g>
			<path class="st6" d="M62.2,29c-0.6,0-1.2-0.2-1.7-0.5c-0.5-0.3-0.9-0.8-1.2-1.3c-0.3-0.6-0.4-1.2-0.4-1.9c0-0.7,0.1-1.3,0.4-1.9
				c0.3-0.6,0.7-1,1.2-1.3c0.5-0.3,1.1-0.5,1.7-0.5c0.5,0,1,0.1,1.4,0.4c0.4,0.2,0.8,0.6,1.1,1c0.3,0.4,0.5,0.8,0.6,1.3h-0.9
				c-0.2-0.6-0.4-1-0.8-1.3c-0.4-0.3-0.8-0.5-1.4-0.5c-0.4,0-0.8,0.1-1.2,0.4c-0.4,0.2-0.7,0.6-0.9,1c-0.2,0.4-0.3,0.9-0.3,1.5
				s0.1,1,0.3,1.5c0.2,0.4,0.5,0.8,0.9,1c0.4,0.2,0.8,0.4,1.2,0.4c0.6,0,1-0.2,1.4-0.5c0.4-0.3,0.6-0.8,0.8-1.3h0.9
				c-0.1,0.5-0.3,0.9-0.6,1.3c-0.3,0.4-0.6,0.7-1.1,1C63.2,28.9,62.7,29,62.2,29z"/>
		</g>
	</g>
</g>
<g>
	<g transform="translate(180.622844, 86.649165)">
		<g>
			<path class="st6" d="M61.3,28.9V19h0.9v3.8h0.1c0.2-0.3,0.5-0.5,0.8-0.8c0.4-0.2,0.8-0.3,1.2-0.3c0.5,0,1,0.1,1.4,0.4
				c0.4,0.2,0.8,0.6,1,1.1c0.2,0.5,0.4,1,0.4,1.6v4.1h-0.9v-4.1c0-0.7-0.2-1.2-0.5-1.6c-0.4-0.4-0.8-0.6-1.4-0.6
				c-0.6,0-1.1,0.2-1.5,0.6c-0.4,0.4-0.6,1-0.6,1.6v4.1H61.3z"/>
		</g>
	</g>
</g>
<g>
	<g transform="translate(186.535762, 86.649165)">
	</g>
</g>
<g>
	<g transform="translate(189.048755, 86.649165)">
		<g>
			<path class="st6" d="M70.9,21.7c0.4,0,0.8,0.1,1.1,0.4c0.4,0.2,0.6,0.6,0.9,1c0.2,0.4,0.3,0.9,0.3,1.5v4.3h-0.9v-4.3
				c0-0.6-0.1-1.1-0.4-1.5c-0.3-0.4-0.7-0.5-1.1-0.5c-0.5,0-0.8,0.2-1.2,0.6c-0.3,0.4-0.5,0.9-0.5,1.5v4.3h-0.9v-4.3
				c0-0.6-0.1-1.1-0.4-1.5c-0.3-0.4-0.7-0.5-1.1-0.5c-0.5,0-0.9,0.2-1.2,0.6C65.1,23.5,65,24,65,24.6v4.3H64v-7h0.7l0.2,1H65
				c0.2-0.3,0.4-0.5,0.7-0.8c0.3-0.2,0.6-0.4,1.1-0.4c0.5,0,1,0.2,1.3,0.5c0.3,0.3,0.6,0.6,0.8,0.9c0.2-0.3,0.4-0.7,0.8-1
				C69.9,21.8,70.4,21.7,70.9,21.7z"/>
		</g>
	</g>
</g>
<g>
	<g transform="translate(197.411307, 86.649165)">
		<g>
			<path class="st6" d="M69.3,21.7c0.5,0,0.9,0.1,1.3,0.3c0.4,0.2,0.7,0.5,0.9,0.9c0.2,0.4,0.4,0.8,0.4,1.3v4.6h-0.7l-0.2-1h-0.1
				c-0.2,0.3-0.4,0.5-0.8,0.8c-0.4,0.2-0.8,0.3-1.4,0.3c-0.5,0-0.9-0.1-1.2-0.3c-0.3-0.2-0.6-0.4-0.8-0.8c-0.2-0.3-0.3-0.7-0.3-1.1
				c0-0.4,0.1-0.8,0.4-1.1c0.3-0.3,0.6-0.6,1.1-0.8c0.5-0.2,1-0.3,1.6-0.3h1.5v-0.4c0-0.5-0.2-0.9-0.5-1.3c-0.3-0.3-0.7-0.5-1.2-0.5
				c-0.5,0-0.9,0.1-1.1,0.4c-0.3,0.2-0.5,0.6-0.5,1h-0.9c0-0.4,0.2-0.8,0.4-1.1c0.2-0.3,0.5-0.6,0.9-0.8
				C68.4,21.8,68.8,21.7,69.3,21.7z M68.8,28.2c0.7,0,1.2-0.2,1.6-0.6c0.4-0.4,0.6-0.9,0.6-1.5v-0.6h-1.4c-0.7,0-1.3,0.1-1.7,0.4
				c-0.4,0.2-0.6,0.6-0.6,1c0,0.4,0.1,0.7,0.4,0.9C67.9,28.1,68.3,28.2,68.8,28.2z"/>
		</g>
	</g>
</g>
<g>
	<g transform="translate(202.659016, 86.649165)">
		<g>
			<path class="st6" d="M71.3,29c-0.6,0-1.1-0.2-1.6-0.5c-0.5-0.3-0.9-0.8-1.2-1.3c-0.3-0.6-0.4-1.2-0.4-1.9s0.1-1.3,0.4-1.9
				c0.3-0.6,0.7-1,1.2-1.3c0.5-0.3,1-0.5,1.6-0.5c0.4,0,0.7,0.1,1,0.2c0.3,0.1,0.6,0.3,0.8,0.5c0.2,0.2,0.4,0.3,0.5,0.4h0.1V19h0.9
				v9.9h-0.7l-0.2-1h-0.1c-0.1,0.1-0.2,0.3-0.5,0.5c-0.2,0.2-0.5,0.3-0.8,0.5C72,29,71.7,29,71.3,29z M71.3,28.2
				c0.4,0,0.8-0.1,1.2-0.4c0.4-0.2,0.6-0.6,0.8-1c0.2-0.4,0.3-0.9,0.3-1.5s-0.1-1-0.3-1.5c-0.2-0.4-0.5-0.8-0.8-1
				c-0.4-0.2-0.8-0.4-1.2-0.4c-0.4,0-0.8,0.1-1.2,0.4c-0.3,0.2-0.6,0.6-0.8,1c-0.2,0.4-0.3,0.9-0.3,1.5s0.1,1,0.3,1.5
				c0.2,0.4,0.5,0.8,0.8,1C70.5,28.1,70.9,28.2,71.3,28.2z"/>
		</g>
	</g>
</g>
<g>
	<g transform="translate(208.740871, 86.649165)">
		<g>
			<path class="st6" d="M76.6,25.2c0,0.3,0,0.5-0.1,0.7h-5.5c0.1,0.7,0.3,1.3,0.8,1.7c0.4,0.4,1,0.6,1.6,0.6c0.9,0,1.5-0.4,2-1.1
				h0.9c-0.2,0.6-0.6,1-1.1,1.4c-0.5,0.4-1.1,0.6-1.8,0.6c-0.6,0-1.2-0.2-1.7-0.5c-0.5-0.3-0.9-0.8-1.2-1.3
				c-0.3-0.6-0.4-1.2-0.4-1.9c0-0.7,0.1-1.3,0.4-1.9c0.3-0.6,0.7-1,1.2-1.3c0.5-0.3,1.1-0.5,1.7-0.5c0.6,0,1.1,0.2,1.6,0.5
				c0.5,0.3,0.9,0.7,1.1,1.2C76.5,23.9,76.6,24.5,76.6,25.2z M73.4,22.5c-0.4,0-0.8,0.1-1.1,0.3c-0.3,0.2-0.6,0.5-0.9,0.9
				c-0.2,0.4-0.4,0.8-0.4,1.2h4.6c0-0.7-0.3-1.3-0.7-1.8C74.6,22.8,74,22.5,73.4,22.5z"/>
		</g>
	</g>
</g>
<g>
	<g transform="translate(214.410929, 86.649165)">
	</g>
</g>
<g>
	<g transform="translate(216.923922, 86.649165)">
		<g>
			<path class="st6" d="M79.3,25.2c0,0.3,0,0.5-0.1,0.7h-5.5c0.1,0.7,0.3,1.3,0.8,1.7c0.4,0.4,1,0.6,1.6,0.6c0.9,0,1.5-0.4,2-1.1
				h0.9c-0.2,0.6-0.6,1-1.1,1.4c-0.5,0.4-1.1,0.6-1.8,0.6c-0.6,0-1.2-0.2-1.7-0.5c-0.5-0.3-0.9-0.8-1.2-1.3
				c-0.3-0.6-0.4-1.2-0.4-1.9c0-0.7,0.1-1.3,0.4-1.9c0.3-0.6,0.7-1,1.2-1.3c0.5-0.3,1.1-0.5,1.7-0.5c0.6,0,1.1,0.2,1.6,0.5
				c0.5,0.3,0.9,0.7,1.1,1.2C79.2,23.9,79.3,24.5,79.3,25.2z M76.2,22.5c-0.4,0-0.8,0.1-1.1,0.3c-0.3,0.2-0.6,0.5-0.9,0.9
				c-0.2,0.4-0.4,0.8-0.4,1.2h4.6c0-0.7-0.3-1.3-0.7-1.8C77.3,22.8,76.8,22.5,76.2,22.5z"/>
		</g>
	</g>
</g>
<g>
	<g transform="translate(222.593981, 86.649165)">
		<g>
			<path class="st6" d="M77.7,21.7c0.5,0,0.9,0.1,1.3,0.3c0.4,0.2,0.7,0.5,0.9,0.9c0.2,0.4,0.4,0.8,0.4,1.3v4.6h-0.7l-0.2-1h-0.1
				c-0.2,0.3-0.4,0.5-0.8,0.8c-0.4,0.2-0.8,0.3-1.4,0.3c-0.5,0-0.9-0.1-1.2-0.3c-0.3-0.2-0.6-0.4-0.8-0.8c-0.2-0.3-0.3-0.7-0.3-1.1
				c0-0.4,0.1-0.8,0.4-1.1c0.3-0.3,0.6-0.6,1.1-0.8c0.5-0.2,1-0.3,1.6-0.3h1.5v-0.4c0-0.5-0.2-0.9-0.5-1.3c-0.3-0.3-0.7-0.5-1.2-0.5
				c-0.5,0-0.9,0.1-1.1,0.4c-0.3,0.2-0.5,0.6-0.5,1h-0.9c0-0.4,0.2-0.8,0.4-1.1c0.2-0.3,0.5-0.6,0.9-0.8
				C76.8,21.8,77.2,21.7,77.7,21.7z M77.2,28.2c0.7,0,1.2-0.2,1.6-0.6c0.4-0.4,0.6-0.9,0.6-1.5v-0.6H78c-0.7,0-1.3,0.1-1.7,0.4
				c-0.4,0.2-0.6,0.6-0.6,1c0,0.4,0.1,0.7,0.4,0.9C76.3,28.1,76.7,28.2,77.2,28.2z"/>
		</g>
	</g>
</g>
<g>
	<g transform="translate(227.841689, 86.649165)">
		<g>
			<path class="st6" d="M79.1,29c-0.5,0-0.9-0.1-1.3-0.3c-0.4-0.2-0.7-0.5-0.9-0.8c-0.2-0.3-0.3-0.7-0.4-1.1h0.9
				c0.1,0.4,0.2,0.7,0.5,1s0.7,0.4,1.2,0.4c0.5,0,0.8-0.1,1.1-0.3c0.3-0.2,0.4-0.5,0.4-0.8c0-0.2-0.1-0.4-0.2-0.6
				c-0.1-0.2-0.3-0.3-0.5-0.4c-0.2-0.1-0.5-0.2-0.9-0.3c-0.5-0.2-0.9-0.3-1.1-0.4c-0.3-0.1-0.5-0.3-0.8-0.6c-0.2-0.3-0.3-0.6-0.3-1
				c0-0.4,0.1-0.7,0.3-1c0.2-0.3,0.5-0.5,0.8-0.7c0.3-0.2,0.8-0.3,1.2-0.3c0.4,0,0.8,0.1,1.2,0.3c0.4,0.2,0.6,0.4,0.9,0.8
				c0.2,0.3,0.3,0.7,0.4,1.1h-0.9c-0.1-0.4-0.2-0.7-0.5-0.9c-0.2-0.2-0.6-0.3-1-0.3c-0.4,0-0.8,0.1-1,0.3c-0.2,0.2-0.4,0.5-0.4,0.8
				c0,0.3,0.1,0.6,0.4,0.8c0.3,0.2,0.7,0.3,1.3,0.5c0.5,0.2,0.9,0.3,1.1,0.5c0.3,0.1,0.6,0.3,0.8,0.6c0.2,0.3,0.3,0.6,0.3,1
				c0,0.6-0.2,1.1-0.6,1.4C80.4,28.8,79.8,29,79.1,29z"/>
		</g>
	</g>
</g>
<g>
	<g transform="translate(232.434752, 86.649165)">
		<g>
			<path class="st6" d="M83.1,21.8h1l-3.1,7.8c-0.3,0.7-0.6,1.2-0.9,1.5c-0.3,0.3-0.6,0.4-1,0.4c-0.2,0-0.3,0-0.5-0.1v-0.8
				c0.2,0.1,0.3,0.1,0.4,0.1c0.2,0,0.4-0.1,0.6-0.2c0.2-0.1,0.3-0.4,0.5-0.7l0.4-1l-2.8-6.9h1l2.3,5.7L83.1,21.8z"/>
		</g>
	</g>
</g>
</svg>
